<?xml version="1.0" standalone="no"?>
<!DOCTYPE svg PUBLIC "-//W3C//DTD SVG 20010904//EN"
 "http://www.w3.org/TR/2001/REC-SVG-20010904/DTD/svg10.dtd">
<svg version="1.0" xmlns="http://www.w3.org/2000/svg"
 width="100.000000pt" height="100.000000pt" viewBox="0 0 500.000000 500.000000"
 preserveAspectRatio="xMidYMid meet">

<g transform="translate(0.000000,500.000000) scale(0.100000,-0.100000)"
fill="#87E7D4" stroke="none">
<path d="M2350 3690 l-135 -80 -176 0 -177 0 -78 -137 c-43 -76 -88 -147 -99
-158 -11 -11 -82 -55 -157 -98 l-138 -78 0 -176 0 -176 -80 -139 c-44 -77 -80
-144 -80 -148 0 -4 36 -71 80 -148 l80 -139 0 -176 0 -176 138 -78 c75 -43
146 -87 157 -98 11 -11 55 -82 99 -157 l78 -138 176 0 176 0 137 -80 c76 -44
142 -80 147 -80 6 0 73 36 150 80 l139 80 175 0 176 0 78 138 c43 75 88 146
99 158 11 11 82 55 158 98 l137 78 0 176 0 175 80 139 c44 77 80 144 80 148 0
4 -36 71 -80 148 l-80 139 0 175 0 176 -137 78 c-76 43 -147 87 -158 98 -11
12 -56 83 -99 159 l-78 137 -176 0 -175 0 -139 80 c-77 44 -145 80 -152 80 -6
-1 -72 -37 -146 -80z m236 -35 l79 -45 -165 0 -165 0 75 45 c41 24 80 44 86
45 7 0 47 -20 90 -45z m-487 -109 c-15 -12 -291 -167 -293 -165 -2 2 17 41 43
86 l46 83 104 0 c57 0 102 -2 100 -4z m917 -137 c196 -114 250 -149 269 -178
13 -20 77 -132 144 -248 l121 -212 0 -271 0 -271 -121 -212 c-67 -116 -131
-228 -144 -248 -19 -29 -73 -64 -269 -178 l-246 -141 -270 0 -270 0 -238 136
c-130 74 -245 143 -254 152 -9 9 -78 124 -152 254 l-136 238 0 270 0 270 136
238 c74 130 143 245 152 254 9 9 123 78 252 152 l235 135 272 0 273 1 246
-141z m135 58 c26 -45 45 -84 43 -86 -3 -3 -236 127 -279 156 -17 11 -5 13 85
13 l105 0 46 -83z m-1596 -393 c-37 -64 -76 -131 -86 -148 l-19 -31 0 105 0
105 83 46 c45 26 84 45 86 43 2 -1 -27 -56 -64 -120z m1958 49 l37 -23 0 -102
c0 -88 -2 -100 -13 -83 -24 35 -157 272 -157 279 0 7 53 -22 133 -71z m-2123
-625 l0 -163 -45 75 c-24 41 -44 81 -45 88 0 11 81 162 88 162 1 0 2 -73 2
-162z m2309 2 c0 -8 -20 -49 -44 -90 l-45 -75 0 165 0 165 45 -75 c24 -41 44
-82 44 -90z m-2144 -574 c37 -64 66 -119 64 -120 -2 -2 -41 17 -86 43 l-83 46
0 105 0 105 19 -31 c10 -17 49 -84 86 -148z m1986 -29 c-15 -15 -155 -96 -160
-92 -2 2 34 69 80 149 l84 146 3 -97 c2 -55 -2 -101 -7 -106z m-1587 -358 c77
-45 143 -83 145 -85 2 -2 -43 -4 -100 -4 l-105 0 -17 33 c-8 17 -30 56 -47 85
-17 28 -27 52 -24 52 4 0 70 -37 148 -81z m1216 29 c-17 -29 -39 -68 -47 -85
l-17 -33 -105 0 c-57 0 -102 2 -100 4 9 9 284 166 292 166 4 0 -6 -24 -23 -52z
m-584 -223 c-43 -25 -83 -45 -90 -45 -6 1 -45 21 -86 45 l-75 45 165 0 165 0
-79 -45z"/>
<path d="M2152 2738 l3 -53 43 -3 42 -3 0 -153 c0 -112 -3 -156 -13 -164 -7
-6 -35 -12 -62 -14 l-50 -3 0 -55 0 -55 65 0 c80 1 131 24 162 74 22 35 23 45
23 256 l0 220 -108 3 -108 3 3 -53z"/>
<path d="M2475 2778 c-3 -7 -4 -132 -3 -278 l3 -265 113 -3 c62 -1 131 2 153
8 114 31 162 162 88 241 l-29 31 25 29 c57 69 37 169 -43 217 -43 25 -57 27
-174 31 -101 2 -129 0 -133 -11z m239 -117 c23 -19 20 -68 -3 -81 -11 -5 -42
-10 -70 -10 l-51 0 0 56 0 56 54 -4 c30 -3 62 -10 70 -17z m4 -227 c27 -19 29
-60 3 -74 -11 -5 -45 -10 -75 -10 l-56 0 0 50 0 50 53 0 c31 0 61 -6 75 -16z"/>
</g>
</svg>
